<svg width="50" height="50" viewBox="0 0 50 50" fill="none" xmlns="http://www.w3.org/2000/svg">
<path d="M18.6878 4.16666H31.1879C41.6046 4.16666 45.7712 8.33333 45.7712 18.75V31.25C45.7712 41.6667 41.6046 45.8333 31.1879 45.8333H18.6878C8.27116 45.8333 4.10449 41.6667 4.10449 31.25V18.75C4.10449 8.33333 8.27116 4.16666 18.6878 4.16666Z" stroke="white" stroke-width="3.125" stroke-linecap="round" stroke-linejoin="round"/>
<path d="M4.10449 23.5415L16.6045 23.5831C18.167 23.5831 19.917 22.3956 20.5003 20.9373L22.8754 14.9373C23.4171 13.5831 24.2712 13.5831 24.8129 14.9373L29.5837 27.0415C30.0421 28.2081 30.8962 28.2498 31.4796 27.1456L33.6462 23.0415C34.2921 21.8123 35.9587 20.8123 37.3337 20.8123H45.7921" stroke="white" stroke-width="3.125" stroke-linecap="round" stroke-linejoin="round"/>
</svg>
