<svg width="50" height="50" viewBox="0 0 50 50" fill="none" xmlns="http://www.w3.org/2000/svg">
<g clip-path="url(#clip0_416_881)">
<path d="M7.29198 25C7.32323 25 7.35032 24.9917 7.37948 24.9917L9.33781 33.7958C8.55506 34.1429 7.87007 34.6778 7.34364 35.3531C6.81721 36.0284 6.46561 36.8232 6.32004 37.667C6.17447 38.5108 6.23943 39.3775 6.50917 40.1901C6.7789 41.0028 7.24506 41.7363 7.86628 42.3256C8.4875 42.9149 9.24458 43.3417 10.0703 43.5682C10.8961 43.7947 11.765 43.8139 12.5999 43.624C13.4349 43.4341 14.21 43.0411 14.8566 42.4798C15.5032 41.9185 16.0013 41.2062 16.3066 40.4062L31.2691 42.9C31.3045 43.8225 31.5853 44.7189 32.0826 45.4966C32.5799 46.2744 33.2757 46.9055 34.0982 47.3247C34.9207 47.7439 35.8401 47.9361 36.7617 47.8816C37.6832 47.827 38.5736 47.5275 39.3408 47.0141C40.1081 46.5008 40.7245 45.792 41.1265 44.9609C41.5285 44.1299 41.7016 43.2066 41.6278 42.2864C41.5541 41.3662 41.2362 40.4823 40.7069 39.7259C40.1777 38.9695 39.4562 38.368 38.617 37.9833L42.5795 20.8208C42.6232 20.8208 42.6628 20.8333 42.7086 20.8333C43.6025 20.8357 44.4819 20.6079 45.2622 20.172C46.0426 19.7361 46.6976 19.1068 47.1643 18.3444C47.631 17.5821 47.8936 16.7125 47.927 15.8193C47.9603 14.9261 47.7632 14.0393 47.3546 13.2443C46.9461 12.4493 46.3398 11.7729 45.5941 11.28C44.8484 10.7871 43.9885 10.4945 43.097 10.4302C42.2054 10.3659 41.3124 10.5321 40.5037 10.9128C39.695 11.2936 38.9979 11.876 38.4795 12.6042L29.042 8.4125C29.226 7.6019 29.2133 6.75904 29.005 5.95434C28.7967 5.14965 28.3988 4.4065 27.8446 3.787C27.2904 3.1675 26.5959 2.68964 25.8193 2.39336C25.0427 2.09708 24.2064 1.99099 23.3804 2.08394C22.5544 2.17689 21.7627 2.46619 21.0713 2.92767C20.38 3.38914 19.8091 4.00938 19.4064 4.73656C19.0038 5.46374 18.781 6.27673 18.7567 7.1076C18.7325 7.93846 18.9074 8.76307 19.267 9.5125L10.7316 15.9104C10.1014 15.3524 9.3451 14.9558 8.52775 14.7547C7.71041 14.5536 6.85646 14.554 6.0393 14.7558C5.22214 14.9577 4.46622 15.355 3.83653 15.9135C3.20684 16.4721 2.72222 17.1752 2.42432 17.9625C2.12642 18.7497 2.02416 19.5975 2.12632 20.433C2.22849 21.2685 2.53203 22.0667 3.01085 22.759C3.48967 23.4512 4.12944 24.0168 4.87516 24.4072C5.62089 24.7976 6.45026 25.001 7.29198 25ZM9.41282 24.5375C10.5794 24.013 11.5133 23.0791 12.0378 21.9125L20.842 23.8708C20.842 23.9 20.8336 23.9271 20.8336 23.9583C20.8333 24.9791 21.1348 25.9772 21.7003 26.8271L14.3253 34.2021C13.4763 33.6361 12.479 33.3339 11.4586 33.3333C11.4295 33.3333 11.4003 33.3417 11.3711 33.3417L9.41282 24.5375ZM24.3795 19.0479C23.7016 19.2763 23.078 19.6419 22.5475 20.1218C22.017 20.6017 21.5911 21.1858 21.2961 21.8375L12.492 19.8792C12.492 19.85 12.5003 19.8229 12.5003 19.7917C12.4965 19.0229 12.3207 18.2648 11.9857 17.5729L20.5191 11.1729C21.3631 11.9217 22.4294 12.3732 23.5545 12.4583L24.3795 19.0479ZM29.167 22.9167V25C29.167 25.5525 28.9475 26.0824 28.5568 26.4731C28.1661 26.8638 27.6362 27.0833 27.0836 27.0833H25.0003C24.4478 27.0833 23.9179 26.8638 23.5272 26.4731C23.1365 26.0824 22.917 25.5525 22.917 25V22.9167C22.917 22.3641 23.1365 21.8342 23.5272 21.4435C23.9179 21.0528 24.4478 20.8333 25.0003 20.8333H27.0836C27.6362 20.8333 28.1661 21.0528 28.5568 21.4435C28.9475 21.8342 29.167 22.3641 29.167 22.9167ZM31.6107 40.8437L16.6461 38.35C16.6158 37.3965 16.3223 36.47 15.7982 35.6729L23.1732 28.2979C23.8136 28.7336 24.5463 29.015 25.3137 29.1198C26.0811 29.2246 26.8624 29.1501 27.5961 28.9021L33.0795 38.7771C32.426 39.3339 31.9207 40.0439 31.6086 40.8437H31.6107ZM12.5003 41.6667H10.417C9.86445 41.6667 9.33454 41.4472 8.94384 41.0565C8.55314 40.6658 8.33365 40.1359 8.33365 39.5833V37.5C8.33365 36.9475 8.55314 36.4176 8.94384 36.0269C9.33454 35.6362 9.86445 35.4167 10.417 35.4167H12.5003C13.0528 35.4167 13.5828 35.6362 13.9735 36.0269C14.3642 36.4176 14.5836 36.9475 14.5836 37.5V39.5833C14.5836 40.1359 14.3642 40.6658 13.9735 41.0565C13.5828 41.4472 13.0528 41.6667 12.5003 41.6667ZM39.5836 41.6667V43.75C39.5836 44.3025 39.3642 44.8324 38.9735 45.2231C38.5828 45.6138 38.0528 45.8333 37.5003 45.8333H35.417C34.8644 45.8333 34.3345 45.6138 33.9438 45.2231C33.5531 44.8324 33.3336 44.3025 33.3336 43.75V41.6667C33.3336 41.1141 33.5531 40.5842 33.9438 40.1935C34.3345 39.8028 34.8644 39.5833 35.417 39.5833H37.5003C38.0528 39.5833 38.5828 39.8028 38.9735 40.1935C39.3642 40.5842 39.5836 41.1141 39.5836 41.6667ZM36.5878 37.5125C36.5461 37.5125 36.5045 37.5 36.4586 37.5C35.9294 37.5075 35.4044 37.5967 34.9024 37.7646L29.4191 27.8896C30.1761 27.2663 30.7341 26.4352 31.0244 25.4985C31.3146 24.5619 31.3243 23.5608 31.0524 22.6188L38.6316 18.8271C39.1405 19.4797 39.7975 20.0017 40.5482 20.35L36.5878 37.5125ZM41.667 12.5H43.7503C44.3028 12.5 44.8328 12.7195 45.2235 13.1102C45.6142 13.5009 45.8336 14.0308 45.8336 14.5833V16.6667C45.8336 17.2192 45.6142 17.7491 45.2235 18.1398C44.8328 18.5305 44.3028 18.75 43.7503 18.75H41.667C41.1144 18.75 40.5845 18.5305 40.1938 18.1398C39.8031 17.7491 39.5836 17.2192 39.5836 16.6667V14.5833C39.5836 14.0308 39.8031 13.5009 40.1938 13.1102C40.5845 12.7195 41.1144 12.5 41.667 12.5ZM37.6274 14.5062C37.4368 15.3179 37.4612 16.1652 37.6982 16.9646L30.1191 20.7563C29.6764 20.1921 29.1214 19.7261 28.4891 19.3879C27.8568 19.0497 27.1611 18.8467 26.4461 18.7917L25.6211 12.2021C26.6527 11.8551 27.5496 11.1935 28.1857 10.3104L37.6274 14.5062ZM20.8336 8.33333V6.25C20.8336 5.69747 21.0531 5.16756 21.4438 4.77686C21.8345 4.38616 22.3644 4.16667 22.917 4.16667H25.0003C25.5528 4.16667 26.0828 4.38616 26.4735 4.77686C26.8642 5.16756 27.0836 5.69747 27.0836 6.25V8.33333C27.0836 8.88587 26.8642 9.41577 26.4735 9.80647C26.0828 10.1972 25.5528 10.4167 25.0003 10.4167H22.917C22.3644 10.4167 21.8345 10.1972 21.4438 9.80647C21.0531 9.41577 20.8336 8.88587 20.8336 8.33333ZM4.16698 18.75C4.16698 18.1975 4.38648 17.6676 4.77718 17.2769C5.16788 16.8862 5.69778 16.6667 6.25032 16.6667H8.33365C8.88618 16.6667 9.41609 16.8862 9.80679 17.2769C10.1975 17.6676 10.417 18.1975 10.417 18.75V20.8333C10.417 21.3859 10.1975 21.9158 9.80679 22.3065C9.41609 22.6972 8.88618 22.9167 8.33365 22.9167H6.25032C5.69778 22.9167 5.16788 22.6972 4.77718 22.3065C4.38648 21.9158 4.16698 21.3859 4.16698 20.8333V18.75Z" fill="white"/>
</g>
<defs>
<clipPath id="clip0_416_881">
<rect width="50" height="50" fill="white"/>
</clipPath>
</defs>
</svg>
