<svg width="50" height="50" viewBox="0 0 50 50" fill="none" xmlns="http://www.w3.org/2000/svg">
<g clip-path="url(#clip0_416_957)">
<path d="M43.0949 12.5432L8.2944 0.120891C7.65974 -0.106853 6.95708 -0.00863174 6.40769 0.378856C5.85829 0.765265 5.53125 1.39669 5.53125 2.06805V45.0609C5.53125 45.7322 5.85829 46.3637 6.40769 46.749C6.76063 46.9972 7.17834 47.1289 7.59929 47.1289C7.83351 47.1289 8.06881 47.0901 8.29548 47.0091L17.2336 43.8196C19.361 47.579 23.3762 50.0011 27.7875 50.0011C34.4838 50.0011 39.9324 44.5514 39.9324 37.8551C39.9324 37.1622 39.8698 36.4703 39.7489 35.7828L43.0982 34.589C43.9206 34.2943 44.47 33.515 44.47 32.6408V14.4903C44.4668 13.6171 43.9185 12.8378 43.0949 12.5432ZM9.66518 5.00173L15.1796 6.97155V40.1606L9.66518 42.1272V5.00173ZM35.7672 37.201C35.7877 37.418 35.7953 37.636 35.7953 37.853C35.7953 42.2708 32.2021 45.8639 27.7854 45.8639C25.1226 45.8639 22.6746 44.5288 21.2013 42.4003L31.3656 38.7726L35.7672 37.201ZM40.3318 31.1804L27.7908 35.6565L19.3146 38.683V8.44595L40.3318 15.9485V31.1804Z" fill="white"/>
</g>
<defs>
<clipPath id="clip0_416_957">
<rect width="50" height="50" fill="white"/>
</clipPath>
</defs>
</svg>
