<svg width="50" height="50" viewBox="0 0 50 50" fill="none" xmlns="http://www.w3.org/2000/svg">
<g clip-path="url(#clip0_416_884)">
<path d="M10 0C5.86416 0 2.5 3.36416 2.5 7.5C2.5 11.6358 5.86416 15 10 15C14.1358 15 17.5 11.6358 17.5 7.5C17.5 3.36416 14.1358 0 10 0ZM10 12.5C7.23838 12.5 5 10.2616 5 7.5C5 4.73838 7.23838 2.5 10 2.5C12.7616 2.5 15 4.73838 15 7.5C15 10.2616 12.7617 12.5 10 12.5Z" fill="white"/>
<path d="M10 37.5H3.75C3.06162 37.5 2.5 36.9384 2.5 36.25V25C2.5 24.3092 1.94082 23.75 1.25 23.75C0.55918 23.75 0 24.3092 0 25V36.25C0 38.3175 1.68252 40 3.75 40H5V47.5H3.75C3.05918 47.5 2.5 48.0592 2.5 48.75C2.5 49.4408 3.05918 50 3.75 50H8.75C9.44082 50 10 49.4408 10 48.75C10 48.0592 9.44082 47.5 8.75 47.5H7.5V40H10C11.0059 40 11.235 40.6858 11.25 41.2625C11.2575 41.9458 11.8142 42.5 12.5 42.5C13.1908 42.5 13.75 41.9408 13.75 41.25C13.75 39.7434 12.7517 37.5 10 37.5Z" fill="white"/>
<path d="M40 0C35.8642 0 32.5 3.36416 32.5 7.5C32.5 11.6358 35.8642 15 40 15C44.1358 15 47.5 11.6358 47.5 7.5C47.5 3.36416 44.1358 0 40 0ZM40 12.5C37.2384 12.5 35 10.2616 35 7.5C35 4.73838 37.2384 2.5 40 2.5C42.7616 2.5 45 4.73838 45 7.5C45 10.2616 42.7616 12.5 40 12.5Z" fill="white"/>
<path d="M48.75 23.75C48.0592 23.75 47.5 24.3092 47.5 25V36.25C47.5 36.9384 46.9384 37.5 46.25 37.5H40C37.2483 37.5 36.25 39.7434 36.25 41.25C36.25 41.9408 36.8092 42.5 37.5 42.5C38.1858 42.5 38.7425 41.9458 38.75 41.2625C38.765 40.6858 38.9941 40 40 40H42.5V47.5H41.25C40.5592 47.5 40 48.0592 40 48.75C40 49.4408 40.5592 50 41.25 50H46.25C46.9408 50 47.5 49.4408 47.5 48.75C47.5 48.0592 46.9408 47.5 46.25 47.5H45V40H46.25C48.3175 40 50 38.3175 50 36.25V25C50 24.3092 49.4408 23.75 48.75 23.75Z" fill="white"/>
<path d="M40 17.5C37.2434 17.5 35 19.7434 35 22.5V28.1983L31.25 29.4483V27.5H32.5C33.1908 27.5 33.75 26.9408 33.75 26.25C33.75 25.5592 33.1908 25 32.5 25H17.5C16.8092 25 16.25 25.5592 16.25 26.25C16.25 26.9408 16.8092 27.5 17.5 27.5H18.75V29.4483L15 28.1983V22.5C15 19.7434 12.7566 17.5 10 17.5C7.24336 17.5 5 19.7434 5 22.5V32.5C5 33.6475 5.78086 34.6475 6.89336 34.925L15.3584 37.0417L17.5484 47.9908C17.7825 49.1592 18.8083 50 20 50H30C31.1917 50 32.2175 49.1592 32.4517 47.9908L34.6417 37.0417L43.1067 34.925C44.2191 34.6475 45 33.6475 45 32.5V22.5C45 19.7434 42.7566 17.5 40 17.5ZM18.75 41.25L17.5 35L7.5 32.5V22.5C7.5 21.1191 8.61914 20 10 20C11.3809 20 12.5 21.1191 12.5 22.5V30L18.75 32.0833V41.25ZM28.75 30.355V40V47.5H21.25V40V30.355V27.5H28.75V30.355ZM42.5 32.5L32.5 35L31.25 41.25V32.0833L37.5 30V22.5C37.5 21.1191 38.6191 20 40 20C41.3809 20 42.5 21.1191 42.5 22.5V32.5Z" fill="white"/>
</g>
<defs>
<clipPath id="clip0_416_884">
<rect width="50" height="50" fill="white"/>
</clipPath>
</defs>
</svg>
