<svg width="50" height="50" viewBox="0 0 50 50" fill="none" xmlns="http://www.w3.org/2000/svg">
<g clip-path="url(#clip0_416_995)">
<path d="M21.9271 27.4627H28.073C33.4042 27.4627 37.6544 23.1187 37.6544 17.8812C37.6544 16.1705 37.6544 11.2408 37.6544 9.58321C37.6544 4.29907 33.3561 0 28.073 0C20.5838 0 23.4916 0 21.9271 0C16.6439 0 12.3457 4.29907 12.3457 9.58321C12.3457 11.3152 12.3457 15.9305 12.3457 17.8812C12.3457 23.1126 16.587 27.4627 21.9271 27.4627ZM28.073 2.69242C31.597 2.69242 34.962 5.39004 34.962 9.93502H31.8621C27.6054 9.93502 24.0297 6.85149 23.3791 2.69242H28.073ZM15.0381 9.58321C15.0381 6.30259 17.3744 3.44881 20.61 2.82022C20.2955 6.01073 18.047 8.68502 15.0381 9.59739V9.58321ZM15.0381 12.3754C18.0965 11.6989 20.6576 9.68983 22.0939 7.00801C24.0525 10.3936 27.7108 12.6274 31.8621 12.6274H34.962V17.8812C34.962 21.656 31.8968 24.7702 28.073 24.7702H21.9271C18.0913 24.7702 15.0381 21.6467 15.0381 17.8812V12.3754Z" fill="white"/>
<path d="M30.5337 29.9151C30.5332 29.9149 30.5328 29.9147 30.5323 29.9146C30.5318 29.9144 30.531 29.9142 30.5305 29.914C27.17 29.004 22.8278 29.0042 19.4679 29.9146C19.4673 29.9147 19.467 29.9149 19.4664 29.9151C11.0263 32.1949 5.13184 39.9 5.13184 48.6538C5.13184 49.3973 5.73458 50 6.47805 50C7.28074 50 42.7194 50 43.5221 50C44.2656 50 44.8683 49.3973 44.8683 48.6538C44.8683 39.8961 38.9739 32.1909 30.5337 29.9151ZM18.9858 45.6216L21.1216 47.3076H7.87846C8.42018 40.5954 12.9765 34.8076 19.4108 32.7384L21.2221 34.6459L18.5243 44.1991C18.3764 44.7229 18.5584 45.2843 18.9858 45.6216ZM25.0001 46.9387L21.3598 44.0654L24.0215 34.6403C24.1505 34.1833 24.0292 33.6918 23.7022 33.3474L22.4924 32.0733C24.1227 31.8779 25.8775 31.8777 27.5076 32.0735L26.298 33.3474C25.971 33.6918 25.8495 34.1831 25.9787 34.6403L28.6404 44.0654L25.0001 46.9387ZM28.8786 47.3074L31.0142 45.6216C31.4416 45.2843 31.6236 44.7229 31.4757 44.1991L28.7779 34.6459C30.1755 33.174 29.7612 33.6104 30.5894 32.738C37.0239 34.8042 41.5804 40.5918 42.1215 47.3074H28.8786Z" fill="white"/>
</g>
<defs>
<clipPath id="clip0_416_995">
<rect width="50" height="50" fill="white"/>
</clipPath>
</defs>
</svg>
