<svg width="50" height="50" viewBox="0 0 50 50" fill="none" xmlns="http://www.w3.org/2000/svg">
<g clip-path="url(#clip0_416_930)">
<path d="M46.449 4.07886H27.4321C27.6402 3.68834 27.7883 3.26351 27.7883 2.78933C27.7883 1.24874 26.5396 0 24.999 0C23.4584 0 22.2097 1.24874 22.2097 2.78933C22.2097 3.26351 22.3577 3.68625 22.5659 4.07886H3.55548C2.13933 4.07886 0.989258 5.23321 0.989258 6.64508V34.9332C0.989258 36.3451 2.13933 37.5015 3.55329 37.5015H19.0984L16.0795 48.1504C15.8692 48.8884 16.3134 49.6094 17.0687 49.7467L18.2702 49.9763C19.0255 50.1158 19.8129 49.6266 20.0211 48.8928L23.2525 37.4994H26.7499L29.9833 48.8906C30.1893 49.6266 30.981 50.1158 31.7342 49.9741L32.9293 49.7446C33.6846 49.6072 34.1287 48.8863 33.9184 48.1482L30.8995 37.5015H46.449C47.8565 37.5015 49.0108 36.345 49.0108 34.9332V6.64508C49.0109 5.2354 47.8586 4.07886 46.449 4.07886ZM44.1295 32.4979H5.86626V8.55252H44.1295V32.4979Z" fill="white"/>
<path d="M10.3767 28.4791C11.4752 28.4791 12.3657 27.5886 12.3657 26.4901C12.3657 26.2906 12.3078 26.1103 12.252 25.9301C14.7925 23.881 19.2832 20.2678 21.328 18.6929C21.652 18.9203 22.0253 19.0834 22.4502 19.0834C22.8022 19.0834 23.1154 18.9675 23.4029 18.8066C24.7182 19.9244 26.9539 21.8255 28.5439 23.1751C28.5224 23.2888 28.4752 23.3939 28.4752 23.5141C28.4752 24.6148 29.3678 25.5053 30.4664 25.5053C31.5692 25.5053 32.4597 24.6148 32.4597 23.5141C32.4597 23.3188 32.4018 23.1428 32.3481 22.9648L37.4869 18.3281C37.7637 18.4718 38.0641 18.5749 38.3967 18.5749C39.4952 18.5749 40.3836 17.6844 40.3836 16.5859C40.3836 15.4894 39.4953 14.599 38.3967 14.599C37.2981 14.599 36.4097 15.4894 36.4097 16.5859C36.4097 16.8477 36.4655 17.0944 36.5578 17.324C35.1223 18.62 32.9059 20.6197 31.5241 21.8684C31.2129 21.6689 30.8632 21.5209 30.4663 21.5209C29.9986 21.5209 29.5866 21.7076 29.2476 21.978C27.9345 20.8622 25.8124 19.0599 24.3019 17.7767C24.3813 17.5622 24.4392 17.3369 24.4392 17.0966C24.4392 15.998 23.5488 15.1097 22.4523 15.1097C21.3559 15.1097 20.4633 16.0001 20.4633 17.0987C20.4633 17.3412 20.5212 17.5664 20.6007 17.7788L11.4774 24.8766C11.1599 24.6578 10.793 24.5011 10.3767 24.5011C9.27815 24.5011 8.3877 25.3916 8.3877 26.4901C8.3877 27.5886 9.27815 28.4791 10.3767 28.4791Z" fill="white"/>
</g>
<defs>
<clipPath id="clip0_416_930">
<rect width="50" height="50" fill="white"/>
</clipPath>
</defs>
</svg>
