<svg width="50" height="50" viewBox="0 0 50 50" fill="none" xmlns="http://www.w3.org/2000/svg">
<g clip-path="url(#clip0_416_901)">
<path d="M49.9999 35.3097C49.9999 32.3839 49.1237 29.5588 47.4659 27.1398C46.2735 25.3998 44.738 23.9549 42.9586 22.8812C45.0536 20.8972 46.3644 18.093 46.3644 14.9867C46.3644 8.9886 41.4844 4.10864 35.4865 4.10864C31.9298 4.10864 28.5981 5.86765 26.5744 8.75516C26.0601 8.68026 25.5347 8.63986 24.9999 8.63986C24.4651 8.63986 23.9399 8.68039 23.4256 8.75516C21.4018 5.86765 18.0701 4.10864 14.5135 4.10864C8.51542 4.10864 3.63547 8.9886 3.63547 14.9867C3.63547 18.093 4.94627 20.8972 7.0414 22.8812C5.26185 23.9548 3.72634 25.3998 2.53408 27.1396C0.876282 29.5588 0 32.3839 0 35.3097V41.3603H10.4865V45.8914H39.5136V41.3603H50V35.3097H49.9999ZM35.4865 6.79346C40.0042 6.79346 43.6797 10.4689 43.6797 14.9869C43.6797 19.5048 40.0042 23.1802 35.4865 23.1802C35.4055 23.1802 35.3246 23.179 35.2435 23.1766C35.2497 23.1594 35.2548 23.1419 35.2608 23.1247C35.4007 22.7281 35.5173 22.3209 35.6109 21.9049C35.6175 21.8754 35.625 21.8461 35.6313 21.8164C35.6556 21.7042 35.6769 21.5909 35.6977 21.4774C35.7075 21.4237 35.7176 21.3701 35.7266 21.3163C35.7435 21.2149 35.7588 21.1132 35.7729 21.011C35.7827 20.94 35.7916 20.869 35.8 20.7979C35.8106 20.7077 35.821 20.6173 35.8294 20.5264C35.838 20.4337 35.8445 20.3408 35.8506 20.2478C35.8555 20.1745 35.8615 20.1015 35.8649 20.0278C35.8722 19.8698 35.8764 19.7115 35.8769 19.5531C35.8769 19.5414 35.8779 19.53 35.8779 19.5182C35.8779 19.5119 35.8773 19.5056 35.8773 19.4993C35.8771 19.3375 35.8724 19.1767 35.8651 19.0164C35.863 18.9699 35.8602 18.9234 35.8575 18.877C35.8496 18.7407 35.8392 18.6051 35.8265 18.4702C35.8235 18.4396 35.8211 18.409 35.818 18.3786C35.4124 14.4577 32.9353 11.1017 29.362 9.54943C30.9018 7.81955 33.129 6.79346 35.4865 6.79346ZM22.165 11.8302C22.1912 11.8207 22.2177 11.8117 22.2438 11.8023C22.3253 11.7732 22.4075 11.7455 22.49 11.7188C22.5526 11.6988 22.6155 11.6795 22.6789 11.6609C22.7249 11.6474 22.7711 11.6344 22.8174 11.6215C22.9001 11.5988 22.9832 11.5766 23.0671 11.5564C23.6873 11.4058 24.334 11.324 24.9997 11.324C25.6659 11.3245 26.3129 11.4064 26.9332 11.557C27.0165 11.5772 27.0991 11.5992 27.1814 11.6217C27.2284 11.6348 27.2753 11.6479 27.3219 11.6617C27.3845 11.6801 27.4468 11.6992 27.5086 11.7189C27.5923 11.7459 27.6754 11.7738 27.7578 11.8034C27.7831 11.8123 27.8085 11.8209 27.8338 11.8302C30.5739 12.8435 32.6283 15.2822 33.0933 18.2416C33.0969 18.2653 33.1004 18.289 33.1039 18.3128C33.1188 18.4131 33.1313 18.5141 33.1425 18.6155C33.1465 18.6528 33.1508 18.69 33.1544 18.7274C33.1633 18.8199 33.1698 18.9131 33.1757 19.0065C33.1782 19.0465 33.1815 19.0864 33.1834 19.1265C33.189 19.2458 33.1921 19.3658 33.1925 19.4865C33.1925 19.497 33.1932 19.5072 33.1932 19.5177C33.1932 19.5225 33.1929 19.5275 33.1929 19.5323C33.1927 19.6491 33.1892 19.7651 33.1841 19.8806C33.1825 19.917 33.1808 19.9534 33.1787 19.9896C33.1724 20.1013 33.1641 20.2125 33.1533 20.3228C33.1492 20.3655 33.1435 20.408 33.1387 20.4506C33.1305 20.522 33.1214 20.5933 33.1114 20.6642C33.1037 20.7193 33.0959 20.7746 33.087 20.8295C33.0735 20.9132 33.0584 20.9963 33.0423 21.0791C33.028 21.1528 33.0122 21.2262 32.9959 21.2995C32.9861 21.3437 32.9759 21.3878 32.9653 21.4317C32.9391 21.5406 32.9104 21.6488 32.8798 21.7566C32.8675 21.7994 32.8561 21.8425 32.8432 21.8849C32.8246 21.9466 32.8044 22.0078 32.7844 22.0691C32.7683 22.1181 32.7518 22.1668 32.7348 22.2154C32.7155 22.2705 32.6964 22.3258 32.676 22.3806C32.6412 22.4736 32.6047 22.5659 32.5667 22.6573C32.5498 22.6981 32.5318 22.7385 32.5142 22.7792C32.4811 22.8553 32.447 22.931 32.4115 23.0059C32.4074 23.0147 32.4032 23.0236 32.3991 23.0325C32.3863 23.059 32.3737 23.0857 32.3607 23.1123C32.3209 23.1934 32.2796 23.2735 32.2372 23.353C32.2207 23.3839 32.2047 23.4152 32.1878 23.4459C32.1867 23.4479 32.1856 23.4498 32.1846 23.4517C32.1381 23.5362 32.0897 23.6195 32.0404 23.7022C32.0208 23.7349 32.0015 23.7678 31.9815 23.8001C31.9278 23.8873 31.8726 23.9734 31.8158 24.0583C31.7805 24.111 31.7436 24.1627 31.7071 24.2147C31.6761 24.2587 31.6452 24.3029 31.6134 24.3462C31.5722 24.4023 31.5302 24.4578 31.4875 24.5129C31.4585 24.5504 31.4292 24.5876 31.3997 24.6246C31.3546 24.681 31.3091 24.7371 31.2626 24.7923C31.2338 24.8265 31.2041 24.8601 31.1747 24.8938C31.1264 24.9492 31.0782 25.0048 31.0285 25.0589C30.999 25.0909 30.9684 25.1218 30.9383 25.1535C30.8575 25.2387 30.7748 25.3221 30.6905 25.4038C30.6405 25.4523 30.5907 25.5009 30.5394 25.548C30.5039 25.5806 30.4676 25.6123 30.4315 25.6444C30.3727 25.6966 30.3135 25.7483 30.2532 25.7988C30.2226 25.8244 30.1917 25.8498 30.1607 25.875C30.0878 25.9343 30.014 25.9925 29.9389 26.0494C29.9185 26.0648 29.8984 26.0805 29.8779 26.0958C28.5141 27.1097 26.8259 27.7107 24.9998 27.7107C23.1735 27.7107 21.4851 27.1096 20.1213 26.0954C20.1012 26.0804 20.0815 26.0649 20.0615 26.0498C19.9861 25.9927 19.9119 25.9342 19.8388 25.8746C19.808 25.8495 19.7773 25.8244 19.7469 25.7989C19.6864 25.7482 19.6271 25.6962 19.568 25.6439C19.5322 25.6119 19.4959 25.5805 19.4606 25.548C19.4092 25.5008 19.3593 25.452 19.3091 25.4036C19.2244 25.3216 19.1415 25.2379 19.0605 25.1524C19.0308 25.1211 19.0005 25.0907 18.9713 25.059C18.9215 25.0048 18.8733 24.9491 18.825 24.8936C18.7956 24.8599 18.7661 24.8265 18.7372 24.7923C18.6907 24.7371 18.6453 24.681 18.6002 24.6247C18.5706 24.5877 18.5412 24.5505 18.5123 24.5129C18.4697 24.4579 18.4277 24.4025 18.3865 24.3463C18.3547 24.3029 18.3237 24.2586 18.2926 24.2144C18.2561 24.1626 18.2194 24.111 18.1842 24.0584C18.1271 23.9732 18.0717 23.8867 18.0179 23.7993C17.9981 23.7673 17.9791 23.7349 17.9597 23.7026C17.9097 23.6187 17.8607 23.5344 17.8136 23.4486C17.7962 23.417 17.7799 23.385 17.7628 23.3533C17.7204 23.2735 17.6789 23.1931 17.6391 23.1119C17.6248 23.0831 17.611 23.0539 17.5972 23.0249C17.595 23.0205 17.593 23.0161 17.591 23.0117C17.5538 22.9333 17.5182 22.8541 17.4835 22.7742C17.467 22.7362 17.4502 22.6983 17.4344 22.6602C17.3954 22.5668 17.3582 22.4726 17.3227 22.3775C17.3035 22.3263 17.2858 22.2744 17.2676 22.2228C17.249 22.1697 17.231 22.1163 17.2134 22.0627C17.1945 22.0048 17.1754 21.9468 17.1577 21.8885C17.1313 21.8014 17.1063 21.7137 17.0828 21.6255C17.0663 21.5637 17.0514 21.5012 17.0362 21.439C17.0244 21.39 17.013 21.341 17.0021 21.2917C16.9887 21.2313 16.9751 21.171 16.9631 21.1104C16.9444 21.0159 16.9273 20.9208 16.912 20.8252C16.9037 20.7737 16.8965 20.722 16.8891 20.6705C16.8782 20.5941 16.8684 20.5173 16.8597 20.4403C16.8554 20.4023 16.8504 20.3643 16.8465 20.3263C16.8354 20.2131 16.8269 20.0992 16.8205 19.9848C16.8186 19.9519 16.8171 19.919 16.8157 19.8861C16.8102 19.7639 16.8063 19.6412 16.8063 19.5177C16.8063 19.3853 16.81 19.2539 16.8163 19.123C16.8181 19.0874 16.821 19.0521 16.823 19.0167C16.829 18.9184 16.8361 18.8205 16.8455 18.723C16.8487 18.689 16.8526 18.6552 16.8562 18.6214C16.8677 18.5159 16.8808 18.4109 16.8963 18.3066C16.8993 18.2863 16.9022 18.2659 16.9055 18.2457C17.369 15.2845 19.4238 12.8442 22.165 11.8302ZM6.32015 14.9869C6.32015 10.4691 9.99562 6.79346 14.5135 6.79346C16.8711 6.79346 19.0982 7.81968 20.638 9.54916C17.0635 11.102 14.5859 14.4596 14.1815 18.382C14.1786 18.4086 14.1766 18.4353 14.1741 18.462C14.1606 18.6018 14.15 18.7421 14.142 18.8831C14.1396 18.9261 14.1369 18.9689 14.1349 19.012C14.1272 19.1799 14.122 19.3484 14.122 19.5181C14.122 19.6894 14.127 19.8602 14.135 20.031C14.1382 20.0997 14.1439 20.1678 14.1483 20.2361C14.1549 20.3343 14.1616 20.4326 14.1707 20.5306C14.1788 20.6177 14.1887 20.7043 14.1989 20.7909C14.2078 20.8663 14.2172 20.9415 14.2276 21.0167C14.2413 21.1153 14.2561 21.2136 14.2723 21.3114C14.2821 21.3696 14.2929 21.4276 14.3035 21.4855C14.3236 21.5951 14.3441 21.7043 14.3675 21.8127C14.3753 21.8484 14.3841 21.8838 14.3922 21.9194C14.4833 22.3225 14.5965 22.7171 14.7313 23.102C14.7399 23.1268 14.7474 23.1519 14.7561 23.1766C14.6752 23.179 14.5941 23.1802 14.5133 23.1802C9.99562 23.1801 6.32015 19.5046 6.32015 14.9869ZM12.7372 32.1019C12.7077 32.1484 12.6795 32.1958 12.6505 32.2427C12.5892 32.3417 12.5284 32.4411 12.4696 32.5413C12.4367 32.5973 12.405 32.6537 12.373 32.7101C12.3202 32.8031 12.2679 32.8964 12.2172 32.9905C12.1853 33.0497 12.1538 33.1092 12.1227 33.1686C12.0738 33.2622 12.0262 33.3563 11.9795 33.4507C11.9501 33.51 11.9208 33.5692 11.8924 33.6288C11.8448 33.7282 11.7991 33.8285 11.7538 33.9289C11.7293 33.9836 11.704 34.0378 11.6803 34.0927C11.6279 34.213 11.578 34.3342 11.529 34.4558C11.5146 34.4914 11.4993 34.5265 11.4854 34.5621C11.4232 34.7201 11.3637 34.8792 11.3074 35.039C11.2945 35.0757 11.2829 35.1127 11.2702 35.1494C11.2278 35.2726 11.1864 35.3962 11.1474 35.5204C11.1295 35.5775 11.113 35.6348 11.0958 35.692C11.0643 35.7972 11.0333 35.9026 11.0041 36.0086C10.9868 36.0717 10.9703 36.1349 10.9538 36.1983C10.9272 36.3 10.9017 36.4021 10.8775 36.5045C10.8621 36.5693 10.8471 36.6342 10.8327 36.6991C10.8096 36.8029 10.788 36.907 10.7672 37.0113C10.7547 37.074 10.7418 37.1367 10.7302 37.1997C10.7091 37.3132 10.6902 37.4273 10.6718 37.5416C10.6632 37.5953 10.6536 37.6487 10.6456 37.7024C10.6206 37.8702 10.5979 38.0384 10.5789 38.2074C10.5786 38.2094 10.5785 38.2114 10.5783 38.2134C10.561 38.3671 10.5461 38.5211 10.5336 38.6756H2.68469V35.3097C2.68469 30.7111 5.3283 26.5827 9.46996 24.6205C10.9788 25.4135 12.6939 25.8649 14.5134 25.8649C15.0396 25.8649 15.5674 25.826 16.0912 25.749C16.1728 25.8653 16.2558 25.9805 16.3417 26.0935C16.3707 26.1315 16.4007 26.1686 16.4303 26.2062C16.5151 26.3146 16.6012 26.4219 16.69 26.527C16.7264 26.5701 16.7637 26.6122 16.8008 26.6548C16.884 26.7503 16.9686 26.8447 17.055 26.9372C17.1004 26.9859 17.1466 27.0338 17.1927 27.0818C17.2718 27.1633 17.3519 27.2435 17.4334 27.3226C17.464 27.3523 17.4929 27.3837 17.5238 27.4131C17.4071 27.4835 17.2915 27.5558 17.177 27.6294C17.1584 27.6414 17.1401 27.654 17.1216 27.6661C17.0071 27.7405 16.8938 27.8164 16.7816 27.8939C16.7428 27.9207 16.7041 27.9479 16.6655 27.975C16.5655 28.0454 16.4665 28.1171 16.3684 28.19C16.3374 28.2131 16.306 28.2356 16.2752 28.259C16.1504 28.3534 16.027 28.4495 15.9053 28.5477C15.8787 28.5692 15.8527 28.5914 15.8261 28.6131C15.7292 28.6924 15.6332 28.7731 15.5384 28.855C15.5016 28.8867 15.4651 28.9186 15.4286 28.9507C15.3337 29.0343 15.24 29.1192 15.1473 29.2052C15.1231 29.2276 15.0984 29.2497 15.0744 29.2723C14.9605 29.3795 14.8485 29.4886 14.738 29.5996C14.7093 29.6285 14.6812 29.6579 14.6527 29.6869C14.5682 29.7732 14.4846 29.8604 14.402 29.9489C14.3692 29.984 14.3365 30.0192 14.304 30.0548C14.2111 30.1563 14.1196 30.2591 14.0295 30.3634C14.0154 30.3798 14.0008 30.3956 13.9867 30.4121C13.884 30.532 13.7836 30.6541 13.6845 30.7775C13.6569 30.8119 13.6299 30.8468 13.6026 30.8815C13.5281 30.9762 13.4547 31.0718 13.3825 31.1683C13.3546 31.2056 13.3265 31.2426 13.299 31.2802C13.2045 31.4091 13.1112 31.539 13.0206 31.6712C12.9233 31.8133 12.829 31.957 12.7372 32.1019ZM13.1712 43.2068V41.3604V39.8409C13.1712 39.6919 13.174 39.5434 13.1795 39.3954C13.1813 39.3466 13.1852 39.2983 13.1876 39.2497C13.1924 39.1509 13.197 39.052 13.2042 38.9536C13.2087 38.8939 13.2154 38.8347 13.2207 38.7751C13.2285 38.6883 13.2355 38.6015 13.2452 38.5153C13.2523 38.4522 13.2615 38.3895 13.2696 38.3266C13.2801 38.2446 13.2899 38.1624 13.3019 38.0808C13.3117 38.0158 13.3236 37.9514 13.3343 37.8867C13.3475 37.808 13.3597 37.7291 13.3744 37.6508C13.3869 37.5847 13.4014 37.5192 13.415 37.4533C13.4305 37.3773 13.4454 37.301 13.4625 37.2256C13.4775 37.159 13.4947 37.0931 13.5108 37.0268C13.5289 36.953 13.5463 36.8787 13.5657 36.8053C13.5834 36.7386 13.603 36.6725 13.6218 36.6064C13.6422 36.5343 13.6621 36.4621 13.6838 36.3905C13.7041 36.3239 13.7264 36.2579 13.7477 36.1917C13.7706 36.1215 13.7927 36.0512 13.8167 35.9815C13.8396 35.9156 13.8641 35.8502 13.888 35.7849C13.9133 35.7159 13.938 35.6466 13.9644 35.5781C13.9896 35.513 14.0165 35.4487 14.0427 35.384C14.0702 35.3165 14.0973 35.2486 14.126 35.1816C14.1538 35.117 14.1831 35.0531 14.2119 34.9892C14.2416 34.9233 14.271 34.8572 14.3019 34.7919C14.3321 34.7282 14.3637 34.6652 14.395 34.602C14.427 34.5375 14.4585 34.473 14.4915 34.4092C14.5242 34.3464 14.5581 34.2844 14.5918 34.2222C14.6259 34.1593 14.6596 34.0963 14.6948 34.034C14.7297 33.9723 14.7659 33.9115 14.8017 33.8504C14.838 33.7889 14.874 33.7273 14.9114 33.6664C14.9486 33.6058 14.987 33.5462 15.0252 33.4864C15.0636 33.4264 15.1018 33.3664 15.1412 33.307C15.1807 33.2477 15.2212 33.1892 15.2618 33.1306C15.3022 33.0722 15.3424 33.0139 15.3838 32.9561C15.4254 32.8981 15.4682 32.841 15.511 32.7836C15.5535 32.7269 15.5957 32.6701 15.6391 32.6141C15.6829 32.5576 15.7277 32.5019 15.7725 32.446C15.817 32.3907 15.8615 32.3356 15.9069 32.2811C15.9527 32.2263 15.9994 32.1722 16.0461 32.1182C16.0927 32.0644 16.1394 32.0106 16.187 31.9574C16.2347 31.9043 16.2834 31.8519 16.332 31.7996C16.3806 31.7474 16.4292 31.6954 16.4787 31.6441C16.5284 31.5926 16.579 31.5418 16.6298 31.4912C16.6804 31.4406 16.7312 31.3903 16.7828 31.3405C16.8342 31.291 16.8864 31.2421 16.9389 31.1934C16.9915 31.1445 17.0444 31.0958 17.098 31.0477C17.1514 30.9999 17.2053 30.9528 17.2597 30.906C17.3142 30.8589 17.3691 30.812 17.4246 30.7658C17.4797 30.7199 17.5354 30.6747 17.5915 30.6297C17.6481 30.5843 17.705 30.5394 17.7624 30.4949C17.8192 30.4512 17.8765 30.408 17.9341 30.365C17.9926 30.3214 18.0516 30.2783 18.1112 30.2357C18.1694 30.194 18.2282 30.1529 18.2874 30.1121C18.3481 30.0704 18.409 30.0292 18.4705 29.9885C18.5302 29.949 18.5905 29.91 18.6511 29.8714C18.7137 29.8316 18.7768 29.7922 18.8403 29.7536C18.9015 29.7163 18.9631 29.6793 19.0252 29.6431C19.0896 29.6054 19.1546 29.5682 19.2199 29.5315C19.2826 29.4964 19.3457 29.4616 19.4092 29.4275C19.4757 29.3918 19.5426 29.3568 19.61 29.3221C19.6739 29.2893 19.7381 29.2569 19.8028 29.2251C19.8537 29.2001 19.9051 29.176 19.9565 29.1517C21.4651 29.9447 23.1805 30.396 24.9999 30.396C26.8195 30.396 28.5347 29.9447 30.0434 29.1517C30.0944 29.1758 30.1454 29.1999 30.1959 29.2246C30.2614 29.2568 30.3262 29.2895 30.3909 29.3227C30.4575 29.3569 30.5238 29.3915 30.5896 29.4268C30.6537 29.4613 30.7175 29.4965 30.7809 29.5321C30.8454 29.5683 30.9096 29.605 30.9732 29.6423C31.0362 29.6791 31.0986 29.7165 31.1606 29.7544C31.2233 29.7926 31.2855 29.8313 31.3472 29.8706C31.4087 29.9097 31.4696 29.9492 31.5302 29.9893C31.591 30.0294 31.6512 30.0702 31.7111 30.1114C31.7708 30.1526 31.8303 30.1941 31.8892 30.2363C31.9482 30.2784 32.0064 30.3211 32.0644 30.3643C32.1227 30.4076 32.1805 30.4512 32.2378 30.4955C32.2948 30.5395 32.3511 30.5841 32.4073 30.629C32.4636 30.6743 32.5197 30.7198 32.5753 30.766C32.6305 30.8119 32.685 30.8585 32.7392 30.9053C32.7938 30.9524 32.8482 30.9998 32.9019 31.048C32.9551 31.0956 33.0075 31.144 33.0598 31.1924C33.1127 31.2416 33.1654 31.291 33.2174 31.341C33.2685 31.3903 33.3188 31.4402 33.3689 31.4903C33.4199 31.5413 33.4709 31.5924 33.521 31.6443C33.5701 31.6953 33.6186 31.7468 33.6668 31.7986C33.7159 31.8514 33.7649 31.9043 33.813 31.9578C33.8602 32.0105 33.9065 32.0637 33.9527 32.1172C33.9998 32.1715 34.0469 32.226 34.093 32.2813C34.1382 32.3354 34.1824 32.3903 34.2265 32.4452C34.2716 32.5013 34.3167 32.5573 34.3608 32.6142C34.404 32.6699 34.446 32.7265 34.4881 32.783C34.5311 32.8404 34.5741 32.898 34.6159 32.9563C34.6572 33.0136 34.6973 33.0718 34.7374 33.13C34.7781 33.1888 34.8189 33.2476 34.8585 33.3072C34.8977 33.3661 34.9356 33.4257 34.9737 33.4853C35.0122 33.5456 35.0509 33.6057 35.0883 33.6666C35.1254 33.7269 35.1611 33.7881 35.197 33.8491C35.2333 33.9105 35.2698 33.9719 35.3048 34.034C35.3399 34.0961 35.3734 34.1589 35.4074 34.2214C35.4412 34.2838 35.4753 34.3461 35.5079 34.4091C35.541 34.4727 35.5724 34.5373 35.6043 34.6016C35.6356 34.6648 35.6674 34.7279 35.6976 34.7918C35.7285 34.857 35.7577 34.9229 35.7873 34.9887C35.8163 35.053 35.8457 35.1169 35.8734 35.1817C35.902 35.2482 35.9288 35.3154 35.9561 35.3826C35.9827 35.4478 36.0098 35.5128 36.0352 35.5785C36.0615 35.6466 36.0861 35.7155 36.1112 35.7842C36.1352 35.8498 36.1598 35.9152 36.1826 35.9814C36.2068 36.0513 36.229 36.122 36.2519 36.1925C36.2732 36.2584 36.2953 36.3241 36.3155 36.3905C36.3374 36.4621 36.3571 36.5344 36.3776 36.6065C36.3964 36.6727 36.416 36.7386 36.4337 36.8053C36.4532 36.8787 36.4705 36.9528 36.4886 37.0268C36.5049 37.093 36.5219 37.159 36.537 37.2256C36.554 37.301 36.5688 37.3771 36.5845 37.453C36.598 37.5189 36.6125 37.5845 36.625 37.6508C36.6397 37.7284 36.6517 37.8067 36.6649 37.8848C36.6758 37.9502 36.6878 38.0152 36.6976 38.0809C36.7097 38.1619 36.7194 38.2435 36.7299 38.3248C36.7381 38.3883 36.7474 38.4514 36.7546 38.5152C36.7642 38.6014 36.7712 38.6882 36.779 38.7749C36.7844 38.8345 36.7911 38.8937 36.7955 38.9535C36.8029 39.0518 36.8073 39.1509 36.8121 39.2498C36.8146 39.2983 36.8185 39.3466 36.8202 39.3952C36.8257 39.5433 36.8285 39.6917 36.8285 39.8407V41.3601V43.2068H13.1712ZM39.4669 38.6756C39.4406 38.3486 39.4027 38.0236 39.3547 37.7006C39.347 37.6495 39.3379 37.5988 39.3297 37.5477C39.3111 37.4308 39.2916 37.3142 39.27 37.1979C39.2586 37.1367 39.2461 37.0758 39.2339 37.0147C39.2128 36.9085 39.1908 36.8026 39.1673 36.6971C39.1531 36.6335 39.1383 36.5699 39.1233 36.5065C39.0987 36.4029 39.0729 36.2996 39.0461 36.1967C39.0298 36.1343 39.0136 36.072 38.9964 36.0097C38.967 35.9026 38.9356 35.796 38.9037 35.6895C38.8867 35.6334 38.8706 35.5772 38.853 35.5212C38.8134 35.3952 38.7716 35.2698 38.7285 35.1447C38.7164 35.1098 38.7054 35.0745 38.693 35.0396C38.6364 34.8792 38.5769 34.7197 38.5145 34.5612C38.5011 34.5272 38.4865 34.4937 38.4728 34.4597C38.4232 34.3366 38.3725 34.2138 38.3195 34.0919C38.296 34.0378 38.2711 33.9844 38.247 33.9305C38.2013 33.8291 38.1552 33.728 38.1071 33.6276C38.0791 33.5688 38.0501 33.5104 38.0212 33.452C37.9741 33.3567 37.9259 33.2618 37.8766 33.1674C37.8458 33.1084 37.8147 33.0496 37.7831 32.9909C37.7321 32.8965 37.6797 32.8028 37.6265 32.7094C37.5946 32.6533 37.5631 32.5972 37.5304 32.5415C37.4714 32.4407 37.4103 32.3409 37.3485 32.2413C37.3198 32.1949 37.2919 32.148 37.2626 32.102C37.1707 31.9572 37.0765 31.8134 36.979 31.6712C36.8883 31.5389 36.795 31.4089 36.7005 31.2801C36.6731 31.2428 36.6452 31.2059 36.6175 31.1688C36.5449 31.0718 36.4712 30.9759 36.3964 30.8809C36.3694 30.8466 36.3427 30.812 36.3153 30.778C36.2161 30.6543 36.1153 30.5319 36.0124 30.4117C35.999 30.3962 35.9851 30.381 35.9717 30.3654C35.881 30.2603 35.7886 30.1567 35.695 30.0544C35.6628 30.0192 35.6305 29.9845 35.598 29.9496C35.515 29.8606 35.4309 29.7726 35.3458 29.6859C35.3177 29.6573 35.2902 29.6285 35.2619 29.6001C35.1511 29.489 35.0386 29.3795 34.9245 29.2721C34.9011 29.2499 34.8769 29.2284 34.8533 29.2064C34.76 29.1199 34.6657 29.0346 34.5704 28.9506C34.5342 28.9186 34.4977 28.887 34.4612 28.8553C34.3661 28.7733 34.2702 28.6926 34.1731 28.6131C34.1467 28.5915 34.1208 28.5694 34.0942 28.5479C33.9726 28.4496 33.8492 28.3535 33.7245 28.2593C33.6933 28.2358 33.6617 28.213 33.6304 28.1897C33.5327 28.1173 33.4343 28.0458 33.3347 27.9758C33.2956 27.9483 33.2565 27.9209 33.2174 27.8938C33.1062 27.8171 32.9941 27.7419 32.8808 27.6684C32.861 27.6555 32.8415 27.6421 32.8216 27.6293C32.7073 27.5559 32.5921 27.4838 32.4756 27.4135C32.5056 27.3849 32.5338 27.3544 32.5635 27.3254C32.6467 27.2449 32.7285 27.163 32.809 27.0798C32.854 27.0333 32.8987 26.9867 32.9427 26.9395C33.0306 26.8455 33.1163 26.7497 33.2008 26.6526C33.2368 26.6114 33.2729 26.5705 33.3082 26.5286C33.3983 26.422 33.4858 26.3131 33.5719 26.2029C33.6001 26.167 33.6289 26.1315 33.6566 26.0951C33.7429 25.9817 33.8262 25.866 33.9083 25.7492C34.432 25.8261 34.9599 25.8651 35.486 25.8651C37.3056 25.8651 39.0208 25.4138 40.5295 24.6206C44.6713 26.5828 47.3148 30.7112 47.3148 35.3098V38.6756H39.4669Z" fill="white"/>
</g>
<defs>
<clipPath id="clip0_416_901">
<rect width="50" height="50" fill="white"/>
</clipPath>
</defs>
</svg>
