<svg width="50" height="50" viewBox="0 0 50 50" fill="none" xmlns="http://www.w3.org/2000/svg">
<g clip-path="url(#clip0_416_912)">
<path d="M44.3548 33.0645H37.9177C39.7661 33.0621 41.5081 32.3758 42.8661 31.1024C44.325 29.7355 45.1613 27.8048 45.1613 25.8065V22.5524C45.1613 19.4556 42.6411 16.9355 39.5444 16.9355H36.2621C33.2758 16.9355 30.8339 19.2798 30.6621 22.2234C30.3153 22.0185 29.9298 21.8726 29.5161 21.8105C28.8298 20.7831 27.6823 20.1613 26.4226 20.1613H22.9726C21.5315 20.1613 20.225 20.7468 19.2782 21.6927C18.85 19.0016 16.5194 16.9355 13.7097 16.9355H10.4839C7.37097 16.9355 4.83871 19.4677 4.83871 22.5806V25.5855C4.83871 29.5242 7.81532 32.8032 11.6153 33.0492C11.7742 33.0597 11.9331 33.0645 12.0903 33.0645H5.64516C2.53226 33.0645 0 35.5968 0 38.7097V46.7742H12.9032V50H37.0968V46.7742H50V38.7097C50 35.5968 47.4677 33.0645 44.3548 33.0645ZM39.4516 34.6774L37.9032 36.6121L36.3548 34.6774H39.4516ZM36.2621 18.5484H39.5444C41.6935 18.5484 43.4387 20.2532 43.5306 22.3798C39.8323 21.5935 35.9734 21.5935 32.275 22.3798C32.3677 20.254 34.1129 18.5484 36.2621 18.5484ZM32.2581 25V24.0339C35.9589 23.1903 39.8452 23.1903 43.5484 24.0339V25.8065C43.5484 27.3839 42.9145 28.8468 41.7629 29.9258C40.6129 31.004 39.1056 31.5419 37.5258 31.4395C34.5718 31.2484 32.2581 28.6766 32.2581 25.5855V25ZM32.1605 30.1573C33.3935 31.8032 35.2758 32.9105 37.4226 33.0492C37.5806 33.0597 37.7395 33.0645 37.8968 33.0645H31.4516C31.3 33.0645 31.1524 33.0879 31.0032 33.1C31.5992 32.2177 31.9927 31.2113 32.1605 30.1573ZM19.3548 25.8065V25.3911C19.3548 23.3968 20.9774 21.7742 22.9718 21.7742H26.4218C27.2266 21.7742 27.9508 22.2218 28.3105 22.9411L28.5339 23.3871H29.0323C29.9218 23.3871 30.6452 24.1105 30.6452 25V25.5855V27.2879C29.8984 27.0395 29.2911 26.4524 29.0323 25.675L28.8073 25H27.0855L26.1234 25.9621C25.704 26.3815 25.1452 26.6129 24.5516 26.6129H19.3548V25.8065ZM19.3548 28.2258H24.5516C25.5766 28.2258 26.5387 27.8266 27.2637 27.1024L27.6976 26.6685C28.2661 27.8573 29.3637 28.6911 30.6452 28.9435V29.0323C30.6452 30.6097 30.0113 32.0726 28.8597 33.1516C27.7097 34.2298 26.2016 34.7653 24.6226 34.6653C21.6685 34.4742 19.3548 31.9024 19.3548 28.8113V28.2258ZM26.3863 37.9032L25.9831 39.5161H24.0169L23.6137 37.9032H26.3863ZM23.5597 36.1379C23.8726 36.2024 24.1911 36.254 24.5185 36.275C24.6774 36.2855 24.8363 36.2903 24.9935 36.2903H23.6274C23.6032 36.2403 23.5847 36.1871 23.5597 36.1379ZM26.3726 36.2903H25.0145C25.4976 36.2895 25.9726 36.2403 26.4363 36.1476C26.4129 36.1936 26.3952 36.2435 26.3726 36.2903ZM17.8685 30.1911C18.0629 31.2589 18.4806 32.246 19.0669 33.1056C18.8944 33.0895 18.7242 33.0645 18.5484 33.0645H12.1113C13.9597 33.0621 15.7016 32.3758 17.0597 31.1024C17.3581 30.8226 17.6234 30.5137 17.8685 30.1911ZM6.45161 22.5806C6.45161 20.3573 8.26048 18.5484 10.4839 18.5484H13.7097C15.9331 18.5484 17.7419 20.3573 17.7419 22.5806V24.0621C16.9952 23.8137 16.3879 23.2266 16.129 22.4492L15.904 21.7742H14.1823L13.2202 22.7363C12.8008 23.1556 12.2419 23.3871 11.6484 23.3871H6.45161V22.5806ZM11.7194 31.4395C8.76532 31.2484 6.45161 28.6766 6.45161 25.5855V25H11.6484C12.6734 25 13.6355 24.6008 14.3605 23.8766L14.7944 23.4427C15.3629 24.6315 16.4605 25.4653 17.7419 25.7177V25.8065C17.7419 27.3839 17.1081 28.8468 15.9565 29.9258C14.8065 31.004 13.2984 31.5419 11.7194 31.4395ZM14.3677 34.6774C14.0339 35.6137 13.1468 36.2903 12.0968 36.2903C11.0468 36.2903 10.1597 35.6137 9.82581 34.6774H14.3677ZM12.9032 45.1613H6.45161V39.5161H4.83871V45.1613H1.6129V38.7097C1.6129 36.4863 3.42177 34.6774 5.64516 34.6774H8.14597C8.52097 36.5153 10.1492 37.9032 12.0968 37.9032C14.0444 37.9032 15.6726 36.5153 16.0476 34.6774H18.5484C19.8339 34.6774 21.0177 35.2952 21.7661 36.2903H18.5484C15.4355 36.2903 12.9032 38.8226 12.9032 41.9355V45.1613ZM19.3548 48.3871V42.7419H17.7419V48.3871H14.5161V41.9355C14.5161 39.7121 16.325 37.9032 18.5484 37.9032H21.9508L22.5661 40.3653L21.7105 46.3565L24.7565 48.3871H19.3548ZM23.4508 45.5782L24.0863 41.129H25.9137L26.5492 45.579L25 46.6113L23.4508 45.5782ZM35.4839 48.3871H32.2581V42.7419H30.6452V48.3871H25.2435L28.2895 46.3565L27.4339 40.3653L28.0492 37.9032H31.4516C33.675 37.9032 35.4839 39.7121 35.4839 41.9355V48.3871ZM48.3871 45.1613H45.1613V39.5161H43.5484V45.1613H37.0968V41.9355C37.0968 38.8226 34.5645 36.2903 31.4516 36.2903H28.2339C28.9823 35.2952 30.1661 34.6774 31.4516 34.6774H34.2903L37.9032 39.1944L41.5161 34.6774H44.3548C46.5782 34.6774 48.3871 36.4863 48.3871 38.7097V45.1613Z" fill="white"/>
<path d="M36.2905 3.2258H21.7744V4.8387H36.2905V3.2258Z" fill="white"/>
<path d="M20.1616 3.2258H13.71V4.8387H20.1616V3.2258Z" fill="white"/>
<path d="M36.2906 6.45161H13.71V8.06452H36.2906V6.45161Z" fill="white"/>
<path d="M36.2906 9.67741H34.6777V11.2903H36.2906V9.67741Z" fill="white"/>
<path d="M33.0648 9.67741H13.71V11.2903H33.0648V9.67741Z" fill="white"/>
<path d="M12.9028 14.5161H22.0342L23.6471 18.5484H26.3519L27.9648 14.5161H37.0963C38.4302 14.5161 39.5157 13.4306 39.5157 12.0968V2.41935C39.5157 1.08548 38.4302 0 37.0963 0H12.9028C11.5689 0 10.4834 1.08548 10.4834 2.41935V12.0968C10.4834 13.4306 11.5689 14.5161 12.9028 14.5161ZM12.0963 2.41935C12.0963 1.975 12.4584 1.6129 12.9028 1.6129H37.0963C37.5407 1.6129 37.9028 1.975 37.9028 2.41935V12.0968C37.9028 12.5411 37.5407 12.9032 37.0963 12.9032H26.8729L25.26 16.9355H24.739L23.1261 12.9032H12.9028C12.4584 12.9032 12.0963 12.5411 12.0963 12.0968V2.41935Z" fill="white"/>
</g>
<defs>
<clipPath id="clip0_416_912">
<rect width="50" height="50" fill="white"/>
</clipPath>
</defs>
</svg>
