<svg width="50" height="50" viewBox="0 0 50 50" fill="none" xmlns="http://www.w3.org/2000/svg">
<g clip-path="url(#clip0_416_971)">
<path d="M43.5484 33.871H42.4556C44.1032 32.5395 45.1613 30.5048 45.1613 28.2258V25C45.1613 21.8879 42.6282 19.3548 39.5161 19.3548H36.2903C36.0161 19.3548 35.7484 19.3815 35.4839 19.4194V4.83871H37.0968V0H0V4.83871H1.6129V28.2258H0V33.0645H18.8565L22.8887 41.129H30.6452V50H50V40.3226C50 36.7653 47.1056 33.871 43.5484 33.871ZM42.5992 37.4323L39.3258 38.8355L41.5605 35.4839H42.1121L42.5992 37.4323ZM36.1839 35.4839H39.6226L37.9032 38.0621L36.1839 35.4839ZM36.479 38.8355L33.2056 37.4323L33.6935 35.4839H34.2452L36.479 38.8355ZM43.5492 28.2258C43.5484 31.3379 41.0153 33.871 37.9032 33.871C34.7911 33.871 32.2581 31.3379 32.2581 28.2258H36.0306C37.454 28.2258 38.7919 27.671 39.7976 26.6653L40.2137 26.2492C41.0508 27.2847 42.2411 27.9565 43.5492 28.1565V28.2258ZM4.83871 19.3548V26.6129H15.6427C15.6556 26.6411 15.6605 26.6718 15.6742 26.6992L16.4371 28.2258H3.22581V4.83871H33.871V19.9073C31.9669 20.8153 30.6452 22.754 30.6452 25V28.2258H24.0863L21.5847 23.5355C21.0048 22.4492 19.8798 21.7742 18.6492 21.7742C17.6371 21.7742 16.7395 22.2387 16.129 22.9548V19.3548H4.83871ZM14.5161 20.9677V25H6.45161V20.9677H14.5161ZM36.2903 20.9677H39.5161C41.7395 20.9677 43.5484 22.7766 43.5484 25V26.5194C42.6242 26.3145 41.8024 25.7653 41.2645 24.9589L40.4476 23.7339L38.6565 25.525C37.9548 26.2266 37.0226 26.6129 36.0306 26.6129H32.2581V25C32.2581 22.7766 34.0669 20.9677 36.2903 20.9677ZM1.6129 1.6129H35.4839V3.22581H1.6129V1.6129ZM1.6129 31.4516V29.8387H17.2435L18.05 31.4516H1.6129ZM25.8065 39.5161H23.8855L17.1169 25.979C16.9984 25.7411 16.9355 25.4758 16.9355 25.2121V25.1008C16.9355 24.1556 17.704 23.3871 18.6492 23.3871C19.2831 23.3871 19.8629 23.7355 20.1613 24.2944L25.8065 34.8782V39.5161ZM24.946 29.8387H30.8323C30.9613 30.4048 31.1581 30.9444 31.4113 31.4516H25.8065L24.946 29.8387ZM26.6669 33.0645H32.5089C32.7694 33.354 33.0484 33.6258 33.3516 33.871H27.0968L26.6669 33.0645ZM48.3871 48.3871H45.1613V45.1613H48.3871V48.3871ZM48.3871 43.5484H45.1613V40.3226H43.5484V48.3871H32.2581V39.5161H27.4194V35.4839H32.0323L31.3097 38.3742L37.9032 41.2L44.4976 38.3742L43.7774 35.4952C46.3387 35.6161 48.3871 37.7315 48.3871 40.3226V43.5484Z" fill="white"/>
<path d="M16.1292 12.9032V11.2903H14.4348C14.33 10.7766 14.1252 10.2992 13.8445 9.87661L15.0461 8.675L13.9058 7.53468L12.7042 8.73629C12.2816 8.45565 11.8042 8.25081 11.2905 8.14597V6.45161H9.67758V8.14597C9.16387 8.25081 8.68645 8.45565 8.26387 8.73629L7.06225 7.53468L5.92193 8.675L7.12354 9.87661C6.8429 10.2992 6.63806 10.7766 6.53322 11.2903H4.83887V12.9032H6.53322C6.63806 13.4169 6.8429 13.8944 7.12354 14.3169L5.92193 15.5185L7.06225 16.6589L8.26387 15.4573C8.68645 15.7379 9.16387 15.9427 9.67758 16.0476V17.7419H11.2905V16.0476C11.8042 15.9427 12.2816 15.7379 12.7042 15.4573L13.9058 16.6589L15.0461 15.5185L13.8445 14.3169C14.1252 13.8944 14.33 13.4169 14.4348 12.9032H16.1292ZM10.484 14.5161C9.15016 14.5161 8.06467 13.4306 8.06467 12.0968C8.06467 10.7629 9.15016 9.67742 10.484 9.67742C11.8179 9.67742 12.9034 10.7629 12.9034 12.0968C12.9034 13.4306 11.8179 14.5161 10.484 14.5161Z" fill="white"/>
<path d="M24.6253 8.06452H27.4196V6.45161H23.7623L20.5365 11.2903H17.7422V12.9032H21.3994L24.6253 8.06452Z" fill="white"/>
<path d="M32.258 6.45161H29.0322V8.06452H32.258V6.45161Z" fill="white"/>
<path d="M22.5809 14.5161H17.7422V19.3548H22.5809V14.5161ZM20.968 17.7419H19.3551V16.129H20.968V17.7419Z" fill="white"/>
<path d="M27.4192 16.129H24.1934V17.7419H27.4192V16.129Z" fill="white"/>
<path d="M32.258 16.129H29.0322V17.7419H32.258V16.129Z" fill="white"/>
</g>
<defs>
<clipPath id="clip0_416_971">
<rect width="50" height="50" fill="white"/>
</clipPath>
</defs>
</svg>
