<svg width="50" height="50" viewBox="0 0 50 50" fill="none" xmlns="http://www.w3.org/2000/svg">
<path d="M48.4375 3.90625H1.5625C0.7 3.90625 0 4.60625 0 5.46875V44.5312C0 45.3937 0.7 46.0938 1.5625 46.0938H48.4375C49.3 46.0938 50 45.3937 50 44.5312V5.46875C50 4.60625 49.3 3.90625 48.4375 3.90625ZM46.875 7.03125V13.2812H3.125V7.03125H46.875ZM3.125 42.9688V16.4062H46.875V42.9688H3.125Z" fill="white"/>
<path d="M7.8125 11.7188C8.21875 11.7188 8.625 11.5547 8.91406 11.2578C9.21094 10.9688 9.375 10.5625 9.375 10.1563C9.375 9.75 9.21094 9.34375 8.91406 9.04688C8.33594 8.46875 7.28906 8.46876 6.70312 9.05469C6.41406 9.34376 6.25 9.74219 6.25 10.1563C6.25 10.5703 6.41406 10.9688 6.71094 11.2656C7 11.5547 7.40547 11.7188 7.8125 11.7188Z" fill="white"/>
<path d="M12.5 11.7188C12.9062 11.7188 13.3125 11.5547 13.6094 11.2578C13.8984 10.9688 14.0625 10.5625 14.0625 10.1563C14.0625 9.75 13.8984 9.34375 13.6016 9.04688C13.0234 8.46875 11.9766 8.46876 11.3906 9.05469C11.1016 9.34376 10.9375 9.75 10.9375 10.1563C10.9375 10.5625 11.1016 10.9688 11.3984 11.2656C11.6875 11.5547 12.093 11.7188 12.5 11.7188Z" fill="white"/>
<path d="M17.1875 11.7188C17.6016 11.7188 18 11.5547 18.2891 11.2578C18.5859 10.9688 18.75 10.5703 18.75 10.1563C18.75 9.75 18.5859 9.34375 18.2891 9.04688C17.7109 8.46875 16.6641 8.46876 16.0781 9.05469C15.7891 9.34376 15.625 9.75 15.625 10.1563C15.625 10.5703 15.7891 10.9688 16.0859 11.2578C16.375 11.5547 16.7805 11.7188 17.1875 11.7188Z" fill="white"/>
<path d="M24.2188 19.5312H7.8125C6.95 19.5312 6.25 20.2313 6.25 21.0938C6.25 21.9562 6.95 22.6562 7.8125 22.6562H24.2188C25.0812 22.6562 25.7812 21.9562 25.7812 21.0938C25.7812 20.2313 25.0812 19.5312 24.2188 19.5312Z" fill="white"/>
<path d="M24.2188 25.7812H7.8125C6.95 25.7812 6.25 26.4813 6.25 27.3438C6.25 28.2062 6.95 28.9062 7.8125 28.9062H24.2188C25.0812 28.9062 25.7812 28.2062 25.7812 27.3438C25.7812 26.4813 25.0812 25.7812 24.2188 25.7812Z" fill="white"/>
<path d="M24.2188 32.0312H7.8125C6.95 32.0312 6.25 32.7313 6.25 33.5938C6.25 34.4562 6.95 35.1562 7.8125 35.1562H24.2188C25.0812 35.1562 25.7812 34.4562 25.7812 33.5938C25.7812 32.7313 25.0812 32.0312 24.2188 32.0312Z" fill="white"/>
<path d="M42.1875 19.5312H30.4688C29.6063 19.5312 28.9062 20.2313 28.9062 21.0938V33.5938C28.9062 34.4562 29.6063 35.1562 30.4688 35.1562H42.1875C43.05 35.1562 43.75 34.4562 43.75 33.5938V21.0938C43.75 20.2313 43.05 19.5312 42.1875 19.5312ZM40.625 32.0312H32.0312V22.6562H40.625V32.0312Z" fill="white"/>
</svg>
